<svg width="127" height="83" viewBox="0 0 127 83" fill="none" xmlns="http://www.w3.org/2000/svg">
<path d="M25.3942 64.4499H62.1556C62.2402 68.0347 62.793 71.5927 63.7997 75.0332H1.22754V1.5332H112.478V26.8171C112.212 26.7241 111.952 26.6325 111.697 26.5425C108.772 25.5101 106.476 24.6999 102.866 24.6999H100.894C97.8221 24.6999 94.8758 23.4795 92.7036 21.3072C90.5313 19.1349 89.3109 16.1886 89.3109 13.1165V12.1165H88.3109H25.3942H24.3942V13.1165C24.3942 19.548 19.2423 24.6999 12.8109 24.6999H11.8109V25.6999V50.8665V51.8665H12.8109C15.883 51.8665 18.8292 53.0869 21.0015 55.2592C23.1738 57.4315 24.3942 60.3778 24.3942 63.4499V64.4499H25.3942ZM56.8702 20.4081L56.8714 20.408C66.1283 20.2334 73.5253 27.7288 74.491 35.4379C67.7641 41.7545 64.8968 48.2147 63.18 54.9677C61.1104 55.7458 58.9586 56.1559 56.8701 56.1582C46.675 55.7901 38.9775 48.3895 38.9775 38.2832C38.9775 28.1557 46.6965 20.5876 56.8702 20.4081ZM93.8024 65.2238L117.441 41.4014L124.841 48.8534L93.0308 80.9041L77.1355 64.8354L84.5961 57.3218L92.3802 65.2213L93.0901 65.9417L93.8024 65.2238Z" fill="#4A405F" stroke="#F9F6F1" stroke-width="2"/>
</svg>
