<svg width="124" height="107" viewBox="0 0 124 107" fill="none" xmlns="http://www.w3.org/2000/svg">
<path d="M76.3282 24.1556L76.3283 24.1555L76.319 24.1471L51.3103 1.40035L51.3105 1.4002L51.2998 1.39101C50.9362 1.07858 50.4778 0.885992 49.9944 0.834313L49.9944 0.834213L49.991 0.83392C49.9907 0.833849 49.9903 0.83377 49.9899 0.833684C49.983 0.832216 49.978 0.831004 49.9685 0.828697C49.9629 0.827328 49.9556 0.825574 49.9455 0.823153C49.9038 0.813237 49.8166 0.79248 49.7126 0.79248H6.85582C3.66163 0.79248 0.974609 3.15819 0.974609 6.16748V87.4175C0.974609 90.4284 3.67058 92.7925 6.87726 92.7925H71.1517C74.3372 92.7925 77.0114 90.4249 77.0114 87.4175V25.6675C77.0114 25.5533 76.9839 25.4599 76.9715 25.4181C76.9623 25.3872 76.962 25.3875 76.9583 25.3741C76.9451 25.2875 76.9255 25.2018 76.8996 25.1179C76.8041 24.7515 76.6048 24.4201 76.3282 24.1556ZM6.85582 5.04248H47.426V22.4175C47.426 25.4249 50.1002 27.7925 53.2857 27.7925H72.4382V87.4175C72.4382 87.6997 72.3154 87.9812 72.0785 88.1966C71.8401 88.4135 71.5074 88.5425 71.1517 88.5425L6.87726 88.5424L6.87184 88.5425C6.69382 88.5444 6.51799 88.5144 6.35479 88.455C6.19161 88.3956 6.04575 88.3085 5.92452 88.2008C5.80339 88.0932 5.70959 87.9675 5.64598 87.8324C5.58288 87.6983 5.55006 87.5563 5.54779 87.4139V6.16748C5.54779 5.59567 6.0833 5.04248 6.85582 5.04248ZM51.9992 22.4175V7.9709L69.1192 23.5425H53.2857C52.93 23.5425 52.5973 23.4135 52.3589 23.1966C52.122 22.9812 51.9992 22.6997 51.9992 22.4175Z" fill="#4A405F" stroke="#4A405F"/>
<path d="M17.5542 40.7925H60.4324C61.0243 40.7925 61.6004 40.579 62.0321 40.1864C62.4653 39.7924 62.7189 39.2472 62.7189 38.6675C62.7189 38.0878 62.4653 37.5426 62.0321 37.1485C61.6004 36.7559 61.0243 36.5425 60.4324 36.5425H17.5542C16.9622 36.5425 16.3861 36.7559 15.9544 37.1485C15.5212 37.5426 15.2676 38.0878 15.2676 38.6675C15.2676 39.2472 15.5212 39.7924 15.9544 40.1864C16.3861 40.579 16.9622 40.7925 17.5542 40.7925ZM17.5542 53.7925H60.4324C61.0243 53.7925 61.6004 53.579 62.0321 53.1864C62.4653 52.7924 62.7189 52.2472 62.7189 51.6675C62.7189 51.0878 62.4653 50.5426 62.0321 50.1485C61.6004 49.7559 61.0243 49.5425 60.4324 49.5425H17.5542C16.9622 49.5425 16.3861 49.7559 15.9544 50.1485C15.5212 50.5426 15.2676 51.0878 15.2676 51.6675C15.2676 52.2472 15.5212 52.7924 15.9544 53.1864C16.3861 53.579 16.9622 53.7925 17.5542 53.7925ZM17.5542 27.7925H35.4201C36.012 27.7925 36.5882 27.579 37.0198 27.1864C37.4531 26.7924 37.7067 26.2472 37.7067 25.6675C37.7067 25.0878 37.4531 24.5426 37.0198 24.1485C36.5882 23.7559 36.012 23.5425 35.4201 23.5425H17.5542C16.9622 23.5425 16.3861 23.7559 15.9544 24.1485C15.5212 24.5426 15.2676 25.0878 15.2676 25.6675C15.2676 26.2472 15.5212 26.7924 15.9544 27.1864C16.3861 27.579 16.9622 27.7925 17.5542 27.7925ZM17.5542 66.7925H60.4324C61.0243 66.7925 61.6004 66.579 62.0321 66.1864C62.4653 65.7924 62.7189 65.2472 62.7189 64.6675C62.7189 64.0878 62.4653 63.5426 62.0321 63.1485C61.6004 62.7559 61.0243 62.5425 60.4324 62.5425H17.5542C16.9622 62.5425 16.3861 62.7559 15.9544 63.1485C15.5212 63.5426 15.2676 64.0878 15.2676 64.6675C15.2676 65.2472 15.5212 65.7924 15.9544 66.1864C16.3861 66.579 16.9622 66.7925 17.5542 66.7925ZM17.5542 79.7925H60.4324C61.0243 79.7925 61.6004 79.579 62.0321 79.1864C62.4653 78.7924 62.7189 78.2472 62.7189 77.6675C62.7189 77.0878 62.4653 76.5426 62.0321 76.1485C61.6004 75.7559 61.0243 75.5425 60.4324 75.5425H17.5542C16.9622 75.5425 16.3861 75.7559 15.9544 76.1485C15.5212 76.5426 15.2676 77.0878 15.2676 77.6675C15.2676 78.2472 15.5212 78.7924 15.9544 79.1864C16.3861 79.579 16.9622 79.7925 17.5542 79.7925Z" fill="#4A405F" stroke="#4A405F"/>
<path d="M78.2978 18.0425H93.8771V35.4175C93.8771 38.4249 96.5514 40.7925 99.7369 40.7925H118.889V100.417C118.889 100.7 118.767 100.981 118.53 101.197C118.291 101.414 117.959 101.542 117.603 101.542L53.3284 101.542L53.323 101.543C53.145 101.544 52.9692 101.514 52.806 101.455C52.6428 101.396 52.4969 101.308 52.3757 101.201C52.2546 101.093 52.1608 100.968 52.0972 100.832C52.034 100.698 52.0012 100.556 51.999 100.414V97.1675C51.999 96.5878 51.7454 96.0426 51.3121 95.6485C50.8805 95.2559 50.3043 95.0425 49.7124 95.0425C49.1204 95.0425 48.5443 95.2559 48.1126 95.6485C47.6794 96.0426 47.4258 96.5878 47.4258 97.1675V100.417C47.4258 103.428 50.1218 105.792 53.3284 105.792H117.603C120.788 105.792 123.463 103.425 123.463 100.417V38.6675C123.463 38.5533 123.435 38.4599 123.423 38.4181C123.418 38.4029 123.416 38.3952 123.414 38.3898C123.412 38.3842 123.411 38.3809 123.409 38.3741C123.396 38.2874 123.377 38.2018 123.351 38.1179C123.255 37.7515 123.056 37.4202 122.779 37.1556L122.779 37.1555L122.77 37.1471L97.7615 14.4003L97.7616 14.4003L97.7538 14.3935C97.3942 14.0798 96.9378 13.8877 96.457 13.8387C96.4558 13.8384 96.4543 13.8381 96.4525 13.8376C96.4434 13.8355 96.439 13.8343 96.4325 13.8326C96.4263 13.831 96.4181 13.8289 96.4016 13.8248C96.3559 13.8134 96.2686 13.7925 96.1637 13.7925H78.2978C77.7059 13.7925 77.1297 14.0059 76.6981 14.3985C76.2648 14.7926 76.0112 15.3378 76.0112 15.9175C76.0112 16.4972 76.2648 17.0424 76.6981 17.4364C77.1297 17.829 77.7059 18.0425 78.2978 18.0425ZM99.7369 36.5425C99.3812 36.5425 99.0485 36.4135 98.81 36.1966C98.5732 35.9812 98.4503 35.6997 98.4503 35.4175V20.9709L115.57 36.5425H99.7369Z" fill="#4A405F" stroke="#4A405F"/>
<path d="M85.4448 53.7925H106.884C107.476 53.7925 108.052 53.579 108.484 53.1864C108.917 52.7924 109.17 52.2472 109.17 51.6675C109.17 51.0878 108.917 50.5426 108.484 50.1485C108.052 49.7559 107.476 49.5425 106.884 49.5425H85.4448C84.8528 49.5425 84.2767 49.7559 83.8451 50.1485C83.4118 50.5426 83.1582 51.0878 83.1582 51.6675C83.1582 52.2472 83.4118 52.7924 83.8451 53.1864C84.2767 53.579 84.8528 53.7925 85.4448 53.7925ZM85.4448 66.7925H106.884C107.476 66.7925 108.052 66.579 108.484 66.1864C108.917 65.7924 109.17 65.2472 109.17 64.6675C109.17 64.0878 108.917 63.5426 108.484 63.1485C108.052 62.7559 107.476 62.5425 106.884 62.5425H85.4448C84.8528 62.5425 84.2767 62.7559 83.8451 63.1485C83.4118 63.5426 83.1582 64.0878 83.1582 64.6675C83.1582 65.2472 83.4118 65.7924 83.8451 66.1864C84.2767 66.579 84.8528 66.7925 85.4448 66.7925ZM85.4448 79.7925H106.884C107.476 79.7925 108.052 79.579 108.484 79.1864C108.917 78.7924 109.17 78.2472 109.17 77.6675C109.17 77.0878 108.917 76.5426 108.484 76.1485C108.052 75.7559 107.476 75.5425 106.884 75.5425H85.4448C84.8528 75.5425 84.2767 75.7559 83.8451 76.1485C83.4118 76.5426 83.1582 77.0878 83.1582 77.6675C83.1582 78.2472 83.4118 78.7924 83.8451 79.1864C84.2767 79.579 84.8528 79.7925 85.4448 79.7925ZM85.4448 92.7925H106.884C107.476 92.7925 108.052 92.579 108.484 92.1864C108.917 91.7924 109.17 91.2472 109.17 90.6675C109.17 90.0878 108.917 89.5426 108.484 89.1485C108.052 88.7559 107.476 88.5425 106.884 88.5425H85.4448C84.8528 88.5425 84.2767 88.7559 83.8451 89.1485C83.4118 89.5426 83.1582 90.0878 83.1582 90.6675C83.1582 91.2472 83.4118 91.7924 83.8451 92.1864C84.2767 92.579 84.8528 92.7925 85.4448 92.7925Z" fill="#4A405F" stroke="#4A405F"/>
</svg>
