<svg width="98" height="135" viewBox="0 0 98 135" fill="none" xmlns="http://www.w3.org/2000/svg">
<path d="M37.6288 1.24141L37.4461 1.06375L37.272 1.24986L35.518 3.12473L35.3583 3.29544L35.5179 3.46623L38.1277 6.25853L38.3104 6.454L38.493 6.25849L40.2445 4.38362L40.4004 4.21671L40.2482 4.04639L38.4968 2.08617L38.4909 2.07962L38.4846 2.0735L37.6288 1.24141ZM57.5519 4.04225L57.3923 4.21298L57.5519 4.38368L59.3046 6.25855L59.4873 6.45393L59.6699 6.25853L62.2784 3.46756L62.4607 3.27253L62.2541 3.10342L60.475 1.6469L60.5269 1.59136L60.3443 1.42065L60.1616 1.24995L59.9274 1.50053L59.7452 1.69556L57.5519 4.04225ZM48.8963 2.00276L48.8955 2.00277C48.4839 2.00811 48.0656 2.03314 47.6436 2.08724C47.6306 2.08666 47.6073 2.08626 47.5791 2.09071C42.4011 2.72931 38.3065 7.20051 37.5953 12.6804L37.5952 12.6806C37.0263 17.0987 38.7282 21.1083 41.5677 23.6919C42.6578 24.688 43.3994 26.0556 43.666 27.5691V35.5484V35.7984H43.916H46.6119C47.0971 36.5929 47.9294 37.1318 48.8988 37.1318C49.8682 37.1318 50.7005 36.5929 51.1857 35.7984H53.8816H54.1316V35.5484V30.4644H54.2487V30.2144V28.6303C54.2487 26.7555 55.1608 24.8454 56.6663 23.3497L56.6664 23.3498L56.6729 23.3429C58.7716 21.0936 60.3601 17.8944 60.3601 14.214C60.3601 7.50607 55.1994 1.93985 48.8963 2.00276ZM54.5548 21.0841L54.3952 21.2547L54.4305 21.2925C52.8736 22.9038 51.8524 25.0132 51.5194 27.2988H46.5089C46.1981 25.0467 45.2663 22.8648 43.5381 21.2799L43.5373 21.2791C41.3926 19.3303 40.1153 16.3961 40.5427 13.0792C41.0742 8.97846 44.1797 5.70227 47.9541 5.25464L47.9541 5.25475L47.9616 5.25364C48.2737 5.20705 48.588 5.17945 48.903 5.17094L48.9621 5.16935L48.9628 5.169C53.5912 5.13534 57.3687 9.20797 57.3687 14.214C57.3687 16.9324 56.1922 19.3325 54.5548 21.0841ZM31.459 13.964H31.209V14.214V16.881V17.131H31.459H35.1961H35.4461V16.881V14.214V13.964H35.1961H31.459ZM62.6015 13.964H62.3515V14.214V16.881V17.131H62.6015H66.3386H66.5886V16.881V14.214V13.964H66.3386H62.6015ZM38.4931 24.8366L38.3104 24.641L38.1277 24.8365L35.5192 27.6275L35.3597 27.7981L35.5192 27.9688L37.2719 29.845L37.4546 30.0407L37.6373 29.845L40.2433 27.0527L40.4025 26.8821L40.2433 26.7115L38.4931 24.8366ZM59.6699 24.8365L59.4872 24.641L59.3046 24.8366L57.5531 26.7114L57.3937 26.882L57.5531 27.0527L60.1603 29.845L60.343 30.0407L60.5257 29.845L62.2784 27.9688L62.4379 27.7981L62.2784 27.6275L59.6699 24.8365ZM51.1402 30.4658V32.6327H46.6574V30.4658H51.1402Z" fill="#4A405F" stroke="#4A405F" stroke-width="0.5"/>
<path fill-rule="evenodd" clip-rule="evenodd" d="M73.0425 68.4067C76.1624 69.3843 78.4077 69.7129 78.4077 69.7129V61.2853H83.773C87.3304 61.2853 90.7421 59.8054 93.2576 57.1713C95.773 54.5371 97.1862 50.9645 97.1862 47.2392C97.1862 43.5139 95.773 39.9413 93.2576 37.3071C90.7421 34.673 87.3304 33.1931 83.773 33.1931H68.3103C64.585 33.1931 61.0123 34.7428 58.3781 37.5013C55.7439 40.2598 54.264 44.0011 54.264 47.9022C54.264 60.5942 65.9281 66.1789 73.0425 68.4067ZM91.8209 47.2392C91.8209 49.4744 90.973 51.618 89.4637 53.1985C87.9545 54.7789 85.9075 55.6669 83.773 55.6669H73.0425V62.5073C71.5707 61.984 70.1341 61.358 68.7422 60.6336C63.4225 57.8412 59.6293 53.869 59.6293 47.9022C59.6293 45.4912 60.5439 43.179 62.1719 41.4741C63.7999 39.7693 66.008 38.8116 68.3103 38.8116H83.773C85.9075 38.8116 87.9545 39.6995 89.4637 41.28C90.973 42.8604 91.8209 45.0041 91.8209 47.2392ZM24.2641 66.8841C20.7486 66.7566 17.4217 65.1875 15.0007 62.515C12.5798 59.8425 11.2588 56.2808 11.3225 52.5977C11.3862 48.9147 12.8295 45.4054 15.3413 42.8265C17.8531 40.2476 21.232 38.8056 24.7497 38.8116H33.2509C36.6895 38.8116 39.9873 40.242 42.4187 42.7881C44.8502 45.3343 46.2161 48.7877 46.2161 52.3885C46.2161 63.7434 36.4782 68.9348 30.1203 71.1176C27.0406 72.1738 24.755 72.5222 24.755 72.5222V66.9037L24.2641 66.8841ZM30.1203 61.4847L24.46 61.2712C22.3329 61.2228 20.3107 60.2938 18.8364 58.6875C17.362 57.0812 16.5555 54.9285 16.5934 52.7009C16.6314 50.4733 17.5107 48.3521 19.0389 46.802C20.5671 45.2518 22.6196 44.3989 24.747 44.43H33.2483C34.2465 44.4296 35.2351 44.6352 36.1575 45.035C37.0798 45.4348 37.9179 46.0209 38.6239 46.76C39.3299 47.499 39.89 48.3765 40.2721 49.3423C40.6542 50.308 40.8509 51.3431 40.8509 52.3885C40.8509 57.7682 37.5861 61.2937 33.0068 63.7939C32.0411 64.3221 31.0619 64.7715 30.1203 65.1536V61.4847ZM59.6293 83.759C59.6293 89.9674 54.8274 94.9959 48.8988 94.9959C42.9701 94.9959 38.1682 89.9674 38.1682 83.759C38.1682 77.5507 42.9701 72.5222 48.8988 72.5222C54.8274 72.5222 59.6293 77.5507 59.6293 83.759ZM54.264 83.759C54.264 85.2491 53.6988 86.6782 52.6926 87.7319C51.6864 88.7855 50.3217 89.3775 48.8988 89.3775C47.4758 89.3775 46.1111 88.7855 45.1049 87.7319C44.0988 86.6782 43.5335 85.2491 43.5335 83.759C43.5335 82.2689 44.0988 80.8399 45.1049 79.7862C46.1111 78.7325 47.4758 78.1406 48.8988 78.1406C50.3217 78.1406 51.6864 78.7325 52.6926 79.7862C53.6988 80.8399 54.264 82.2689 54.264 83.759ZM35.4856 89.3775C35.4856 95.5858 30.6837 100.614 24.755 100.614C18.8264 100.614 14.0245 95.5858 14.0245 89.3775C14.0245 83.1691 18.8264 78.1406 24.755 78.1406C30.6837 78.1406 35.4856 83.1691 35.4856 89.3775ZM30.1203 89.3775C30.1203 90.8676 29.555 92.2966 28.5489 93.3503C27.5427 94.404 26.178 94.9959 24.755 94.9959C23.3321 94.9959 21.9674 94.404 20.9612 93.3503C19.955 92.2966 19.3898 90.8676 19.3898 89.3775C19.3898 87.8874 19.955 86.4583 20.9612 85.4046C21.9674 84.351 23.3321 83.759 24.755 83.759C26.178 83.759 27.5427 84.351 28.5489 85.4046C29.555 86.4583 30.1203 87.8874 30.1203 89.3775ZM0.611328 119.001C0.611328 110.511 16.6964 106.233 24.755 106.233C26.3244 106.233 28.1995 106.396 30.2008 106.719C33.7955 103.957 40.3868 100.614 48.8988 100.614C57.4081 100.614 63.9993 103.957 67.5994 106.719C69.3996 106.415 71.2191 106.252 73.0425 106.233C81.1011 106.233 97.1862 110.511 97.1862 119.001V134.325H0.611328V119.001ZM42.5999 117.534C43.5335 118.444 43.5335 118.919 43.5335 119.001V128.707H5.9766V119.001C5.9766 118.916 5.9766 118.444 6.91015 117.534C7.88395 116.582 9.49085 115.568 11.6745 114.641C16.0526 112.787 21.4018 111.851 24.755 111.851C28.1083 111.851 33.4575 112.787 37.8356 114.641C40.0192 115.568 41.6261 116.582 42.5999 117.534ZM60.0102 108.637C56.5035 107.045 52.721 106.227 48.8988 106.233C44.4563 106.233 40.6792 107.317 37.79 108.637C43.732 110.728 48.8988 114.188 48.8988 119.003C48.8988 114.188 54.0655 110.73 60.0102 108.637ZM91.8209 119.003C91.8209 118.919 91.8209 118.444 90.8874 117.534C89.9136 116.582 88.3067 115.568 86.123 114.641C81.7449 112.787 76.3958 111.851 73.0425 111.851C69.6892 111.851 64.34 112.787 59.9619 114.641C57.7783 115.568 56.1714 116.582 55.1976 117.534C54.264 118.444 54.264 118.919 54.264 119.001V128.707H91.8209V119.001V119.003ZM73.0425 100.614C78.9711 100.614 83.773 95.5858 83.773 89.3775C83.773 83.1691 78.9711 78.1406 73.0425 78.1406C67.1139 78.1406 62.3119 83.1691 62.3119 89.3775C62.3119 95.5858 67.1139 100.614 73.0425 100.614ZM73.0425 94.9959C74.4654 94.9959 75.8301 94.404 76.8363 93.3503C77.8425 92.2966 78.4077 90.8676 78.4077 89.3775C78.4077 87.8874 77.8425 86.4583 76.8363 85.4046C75.8301 84.351 74.4654 83.759 73.0425 83.759C71.6195 83.759 70.2548 84.351 69.2487 85.4046C68.2425 86.4583 67.6772 87.8874 67.6772 89.3775C67.6772 90.8676 68.2425 92.2966 69.2487 93.3503C70.2548 94.404 71.6195 94.9959 73.0425 94.9959Z" fill="#4A405F"/>
</svg>
