<svg width="172" height="108" viewBox="0 0 172 108" fill="none" xmlns="http://www.w3.org/2000/svg">
<path d="M85.2574 80.6933C87.2459 75.9206 87.7792 70.6665 86.79 65.5916C85.8009 60.5167 83.3335 55.8475 79.6981 52.171C80.6984 49.6502 80.8881 46.8803 80.2407 44.2467C79.5934 41.6131 78.1412 39.2468 76.0862 37.477L85.3273 28.2359C86.5749 26.9864 87.2755 25.2928 87.2755 23.5271C87.2755 21.7614 86.5749 20.0679 85.3273 18.8184L75.9131 9.40412C74.6635 8.15657 72.97 7.45587 71.2043 7.45587C69.4386 7.45587 67.745 8.15657 66.4955 9.40412L22.6467 53.2529C21.4 54.5028 20.6998 56.1962 20.6998 57.9617C20.6998 59.7271 21.4 61.4205 22.6467 62.6705L32.061 72.0847C33.3105 73.3322 35.004 74.0329 36.7697 74.0329C38.5354 74.0329 40.229 73.3322 41.4785 72.0847L57.3742 56.189C59.6283 58.7958 62.8193 60.4088 66.255 60.678C69.6907 60.9472 73.094 59.851 75.7266 57.6271C78.4635 60.7582 80.1443 64.672 80.5303 68.8126C80.9164 72.9533 79.988 77.1103 77.8771 80.6933H53.9853V94.0091H14.0381V100.667H93.9326V80.6933H85.2574ZM36.7681 67.3776L27.3538 57.96L33.6089 51.7083L43.0232 61.1225L36.7681 67.3776ZM53.9853 47.4039C53.9901 48.2445 54.0748 49.0828 54.2383 49.9073L47.7303 56.4154L38.316 47.0011L71.2059 14.1112L80.6169 23.5255L69.8011 34.3445C67.8754 33.9624 65.8888 34.0134 63.9852 34.4937C62.0816 34.974 60.3086 35.8717 58.7948 37.1218C57.2809 38.3718 56.064 39.9429 55.2322 41.7213C54.4003 43.4996 53.9745 45.4407 53.9853 47.4039ZM67.3011 54.0618C65.9843 54.0618 64.6971 53.6713 63.6022 52.9398C62.5073 52.2082 61.6539 51.1684 61.15 49.9518C60.6461 48.7352 60.5143 47.3966 60.7711 46.1051C61.028 44.8136 61.6621 43.6272 62.5933 42.6961C63.5244 41.765 64.7107 41.1309 66.0022 40.874C67.2937 40.6171 68.6324 40.7489 69.849 41.2529C71.0655 41.7568 72.1053 42.6101 72.8369 43.705C73.5685 44.7999 73.959 46.0871 73.959 47.4039C73.9572 49.1692 73.2552 50.8616 72.007 52.1098C70.7588 53.358 69.0663 54.0601 67.3011 54.0618ZM87.2747 94.0091H60.6432V87.3512H87.2747V94.0091Z" fill="#4A405F"/>
<g clip-path="url(#clip0_311_364)">
<path d="M151.908 96.434L136.545 78.2522V46.3807H138.466C140.06 46.3807 141.351 45.0897 141.351 43.4957C141.351 41.9017 140.06 40.6106 138.466 40.6106H133.66C132.066 40.6106 130.775 41.9017 130.775 43.4957V79.363C130.774 80.0773 131.04 80.7663 131.519 81.296L143.273 95.4818H106.733L118.487 81.2959C118.966 80.7662 119.232 80.0772 119.231 79.3629V43.4958C119.231 41.9017 117.94 40.6107 116.346 40.6107H111.54C109.946 40.6107 108.655 41.9017 108.655 43.4958C108.655 45.0898 109.946 46.3808 111.54 46.3808H113.461V78.2523L98.0981 96.4341C97.7245 96.8484 97.4788 97.3619 97.3907 97.9128C97.3026 98.4637 97.376 99.0283 97.6019 99.5384C97.8285 100.049 98.1982 100.482 98.6663 100.786C99.1344 101.09 99.6807 101.252 100.239 101.252H149.767C150.325 101.252 150.872 101.09 151.34 100.786C151.808 100.482 152.177 100.049 152.404 99.5384C152.866 98.4969 152.672 97.2794 151.908 96.4341V96.434ZM122.118 37.737C125.297 37.737 127.874 35.1592 127.874 31.9813C127.874 28.8063 125.297 26.2285 122.118 26.2285C118.937 26.2285 116.362 28.8063 116.362 31.9813C116.362 35.1592 118.937 37.737 122.118 37.737ZM140.914 29.1727C146.537 29.1727 151.096 24.6344 151.096 19.0374C151.096 13.4403 146.539 8.9021 140.914 8.9021C135.293 8.9021 130.733 13.4403 130.733 19.0374C130.733 24.6344 135.293 29.1727 140.914 29.1727ZM140.869 14.6549C143.273 14.6549 145.227 16.6008 145.227 18.994C145.227 21.3858 143.273 23.3332 140.869 23.3332C138.466 23.3332 136.512 21.3858 136.512 18.994C136.513 16.6008 138.466 14.6549 140.869 14.6549Z" fill="#4A405F"/>
</g>
<defs>
<clipPath id="clip0_311_364">
<rect width="92.3225" height="92.3225" fill="white" transform="translate(78.8418 8.9151)"/>
</clipPath>
</defs>
</svg>
