<svg width="84" height="98" viewBox="0 0 84 98" fill="none" xmlns="http://www.w3.org/2000/svg">
<path d="M34.9023 51.339L25.9183 42.355L21.0273 47.2459L34.9023 61.1209L62.6523 33.3709L57.7614 28.48L34.9023 51.339Z" fill="#4A405F"/>
<path d="M41.8399 97.855L20.4169 86.4324C14.3096 83.1833 9.20228 78.3324 5.64319 72.4003C2.08409 66.4683 0.207514 59.679 0.214865 52.7612V7.66748C0.216702 5.8281 0.948205 4.06459 2.24884 2.76396C3.54948 1.46332 5.31299 0.731817 7.15237 0.72998H76.5274C78.3667 0.731817 80.1303 1.46332 81.4309 2.76396C82.7315 4.06459 83.463 5.8281 83.4649 7.66748V52.7612C83.4722 59.679 81.5956 66.4683 78.0366 72.4003C74.4775 78.3324 69.3702 83.1833 63.2629 86.4324L41.8399 97.855ZM7.15237 7.66748V52.7612C7.14661 58.4216 8.68244 63.9766 11.595 68.83C14.5076 73.6835 18.6869 77.6522 23.6844 80.31L41.8399 89.9913L59.9953 80.3135C64.9933 77.6554 69.173 73.6862 72.0856 68.832C74.9982 63.9779 76.5338 58.4221 76.5274 52.7612V7.66748H7.15237Z" fill="#4A405F"/>
</svg>
